<svg xmlns="http://www.w3.org/2000/svg" viewBox="0 0 999.43 714.55"><defs><style>.cls-1{fill:#0079ff;}.cls-2{fill:#e8c7db;}.cls-3{fill:#ebe6ed;opacity:0.5;}</style></defs><g id="Layer_2" data-name="Layer 2"><g id="Layer_1-2" data-name="Layer 1"><path class="cls-1" d="M978.35,21.08h0a72,72,0,0,0-101.79,0L356.85,540.8l-234-234a72,72,0,0,0-101.78,0h0a72,72,0,0,0,0,101.78L306,693.47h0a72,72,0,0,0,101.78,0h0L978.35,122.86A72,72,0,0,0,978.35,21.08Z"/><path class="cls-2" d="M632.09,84.5,443.53,273.06l-9.38,9.37L396.39,320.2c-39.06,39.05-7.4,134,70.71,212.13S640.18,642.09,679.23,603L717,565.28l9.38-9.38L914.93,367.34Z"/><path class="cls-2" d="M890.39,210.82l-66,66L722.62,175l66-66C725.43,66.3,662.17,54.41,632.09,84.5c-39.05,39.05-7.4,134,70.71,212.13s173.08,109.76,212.13,70.71C945,337.26,933.13,274,890.39,210.82Z"/><path class="cls-3" d="M619.23,161c10.06,41.81,39.38,91.4,83.57,135.59s93.78,73.51,135.59,83.56c-41.57-22.87-84.35-54.95-124.28-94.88S642.11,202.6,619.23,161Z"/></g></g></svg>