<?xml version="1.0" encoding="utf-8"?>
<!-- Generator: Adobe Illustrator 25.4.0, SVG Export Plug-In . SVG Version: 6.00 Build 0)  -->
<svg version="1.1" id="Layer_1" xmlns="http://www.w3.org/2000/svg" xmlns:xlink="http://www.w3.org/1999/xlink" x="0px" y="0px"
	 viewBox="0 0 576 512" style="enable-background:new 0 0 576 512;" xml:space="preserve">
<path d="M567.5,229.7l-264-224c-8.9-7.6-22.1-7.6-31,0l-264,224c-10.1,8.6-11.3,23.7-2.8,33.8c8.6,10.1,23.7,11.4,33.8,2.8L64,245.5
	v124.4V432v32v8c0,22.1,17.9,40,40,40h8h32h8h40h8c22.1,0,40-17.9,40-40v-8v-96h96v96v8c0,22.1,17.9,40,40,40h8h40h8h32h8
	c22.1,0,40-17.9,40-40v-8v-32v-62.1V245.5l24.5,20.8c10.1,8.6,25.2,7.3,33.8-2.8C578.9,253.4,577.6,238.3,567.5,229.7z M464,432v32
	h-32h-8h-40v-96v-8c0-22.1-17.9-40-40-40h-8h-96h-8c-22.1,0-40,17.9-40,40v8v96h-40h-8h-32v-32v-62.1V204.8L288,55.5l176,149.3
	v165.1V432z"/>
</svg>
