<?xml version="1.0" encoding="utf-8"?>
<!-- Generator: Adobe Illustrator 25.4.0, SVG Export Plug-In . SVG Version: 6.00 Build 0)  -->
<svg version="1.1" id="Layer_1" xmlns="http://www.w3.org/2000/svg" xmlns:xlink="http://www.w3.org/1999/xlink" x="0px" y="0px"
	 viewBox="0 0 576 512" style="enable-background:new 0 0 576 512;" xml:space="preserve">
<path d="M376,512c-22.1,0-40-17.9-40-40v-8h48v48H376z"/>
<path d="M200,512c22.1,0,40-17.9,40-40v-8h-48v48H200z"/>
<g>
	<rect x="240" y="320" width="96" height="48"/>
	<rect x="336" y="368" width="48" height="96"/>
	<path d="M384,360c0-22.1-17.9-40-40-40h-8v48h48V360z"/>
	<rect x="192" y="368" width="48" height="96"/>
	<path d="M232,320c-22.1,0-40,17.9-40,40v8h48v-48H232z"/>
	<path d="M567.5,229.7l-264-224c-8.9-7.6-22.1-7.6-31,0l-264,224c-10.1,8.6-11.3,23.7-2.8,33.8c8.6,10.1,23.7,11.4,33.8,2.8
		L64,245.5V432c0,44.2,35.8,80,80,80h48v-48h-48c-17.7,0-32-14.3-32-32V204.8L288,55.5l176,149.3V432c0,17.7-14.3,32-32,32h-48v48
		h48c44.2,0,80-35.8,80-80V245.5l24.5,20.8c10.1,8.6,25.2,7.3,33.8-2.8C578.9,253.4,577.6,238.3,567.5,229.7z"/>
</g>
</svg>
